<?xml version="1.0" encoding="UTF-8"?>
<svg id="Layer_2" xmlns="http://www.w3.org/2000/svg" version="1.1" viewBox="0 0 1000 1000">
  <!-- Generator: Adobe Illustrator 29.8.4, SVG Export Plug-In . SVG Version: 2.1.1 Build 6)  -->
  <defs>
    <style>
      .st0 {
        fill: #00ff9d;
      }

      .st1 {
        fill: #038adf;
      }
    </style>
  </defs>
  <path class="st1" d="M557.93,38.56c9.4,2.19,19.82,1.72,29.46,2.79,206.87,23.16,376.18,189.42,403.49,395.53l4.14,38.64v48.7l-4.14,38.64c-27.59,205.93-196.41,372.62-403.49,395.53-9.61,1.06-20.11.62-29.46,2.79-16.16-.61-32.58.83-48.71,0C209.01,945.79,3.66,647.11,94.16,360.01,151.15,179.22,319.37,48.29,509.22,38.56h48.71ZM850.35,400.66c10.57-4.34,20.66-10.19,31.5-13.92,4.93-1.7,10.19-1.9,15.01-3.43,16.16-5.12,25.82-16.27,27.12-33.43,2.5-33.01-15.27-53.67-48.12-55.98-29.5-2.07-59.68-1.1-89.24-2.92-126.21-127.47-347.49-73.41-400.19,97.97-59.06,192.09,126.53,368.74,315.33,298.13,114.87-42.96,177.65-167.32,148.59-286.43Z"/>
  <path class="st0" d="M4.99,790.08l96.78-65.76,29.58,48-61.49,30.63c-17.11-.73-36.89,2.01-53.68.3-3.9-.4-9.11-1.69-11.19-5.27v-7.9Z"/>
  <path class="st0" d="M751.11,315.27c29.4.41,58.72,2.14,87.91,3.62,13.15.67,31.95-.9,44.45,1.63,7.31,1.48,14.31,10.32,15.32,17.58,3.22,23.14-7.8,18.55-23.29,23.86s-48.22,19.66-57.99,32.84c-3.85,5.19-6.14,13.15-10.23,17.41-4.8,5-13.59,6.45-19.61,11.98-6.34,5.83-11.01,15.26-18.44,21.05-8.3,6.46-20.04,10.37-28.77,17.31-3.05,2.43-4.36,6.03-8.32,8.79-10.64,7.44-45.81,19.28-51.03,29.27-3.31,6.32-.55,9.62-9.03,14.66-18.86,11.2-47.79,21.59-68.55,31.5-46,21.95-91.97,44.03-137.76,66.42-1.53.83-2.15.09-3.32-.69-4.47-2.97-17.13-19.98-20.9-25.26-10.63-14.9-20.84-33.29-27.16-50.5-1.78-4.85-8.23-21.92-5.91-25.68.87-1.42,24.95-16.74,28.01-18.07,8.36-3.65,10.4.59,17.62-3.47,15.56-8.75,24.05-25.8,37.55-36.15,12.61-9.67,35.17-16.62,50.49-24.55,18.04-9.33,30.08-17.16,45.43-29.6,44.41-36.01,112.29-57.97,163.53-83.95Z"/>
</svg>